#!OML:ASF H:\Terrain\Patient Classification 1\Terrain2\Thursday\justin.ASF
:FULLY-SPECIFIED
:DEGREES
3114
root -1.68829 23.528 0.306398 664.207 -85.1648 -667.947
lowerback 7.52483 0.2891 -3.2175
upperback 3.66676 0.0867852 1.10505
thorax -0.436018 -0.0439049 2.94166
lowerneck -13.0055 3.00468 -7.49376
upperneck 40.8361 5.3981 -0.837499
head 16.8609 0.3029 1.70519
rclavicle -5.66536e-015 7.95139e-015
rhumerus -34.8004 -8.32206 -77.8224
rradius 28.4899
rwrist -11.5448
rhand -18.9698 11.3341
rfingers 7.12502
rthumb 7.33429 -18.5187
lclavicle -5.66536e-015 7.95139e-015
lhumerus -37.5908 9.72881 82.4005
lradius 26.4247
lwrist -1.52275
lhand -15.595 20.6907
lfingers 7.12502
lthumb 10.5908 50.4038
rfemur -39.1394 -14.4077 18.995
rtibia 73.5279
rfoot -11.1714 -5.68695
rtoes 10.2173
lfemur 6.38199 -4.58822 -26.5262
ltibia 20.0897
lfoot -16.1786 -3.63997
ltoes 10.5248
3115
root -1.75683 23.5078 0.299697 668.545 -85.3446 -672.446
lowerback 7.7147 0.26905 -2.94842
upperback 3.68092 0.0719942 1.24695
thorax -0.525657 -0.0490712 2.93836
lowerneck -12.8597 3.00304 -7.60198
upperneck 40.7479 5.37955 -0.75777
head 16.7679 0.299051 1.75299
rclavicle -6.95746e-016 7.95139e-016
rhumerus -35.0402 -8.27104 -77.7318
rradius 28.327
rwrist -11.4535
rhand -19.1551 11.6243
rfingers 7.12502
rthumb 7.1554 -18.2347
lclavicle -6.95746e-016 7.95139e-016
lhumerus -37.8321 9.9374 82.2766
lradius 26.552
lwrist -1.63351
lhand -15.797 20.686
lfingers 7.12502
lthumb 10.396 50.409
rfemur -39.5258 -14.6788 19.615
rtibia 72.3048
rfoot -10.9636 -5.99839
rtoes 13.3165
lfemur 6.43245 -4.9065 -26.1634
ltibia 20.832
lfoot -16.6261 -3.31212
ltoes 10.4661
3116
root -1.82746 23.4866 0.293046 675.557 -85.7549 -679.591
lowerback 7.81132 0.289945 -2.41532
upperback 3.73532 0.133291 1.5355
thorax -0.527743 -0.0174179 2.93149
lowerneck -12.8559 2.93459 -7.71819
upperneck 40.7837 5.31655 -0.772635
head 16.7889 0.251411 1.75655
rclavicle 1.59028e-015 -1.11319e-014
rhumerus -35.2738 -8.12365 -77.6011
rradius 28.3177
rwrist -11.5486
rhand -19.6109 11.4882
rfingers 7.12502
rthumb 6.71548 -18.3853
lclavicle 1.59028e-015 -1.11319e-014
lhumerus -37.8629 9.82295 82.4175
lradius 26.4991
lwrist -1.64439
lhand -16.0982 20.4948
lfingers 7.12502
lthumb 10.1054 50.2321
rfemur -39.8574 -14.894 20.6284
rtibia 70.9498
rfoot -10.3559 -6.41546
rtoes 13.1637
lfemur 6.50307 -5.30083 -25.5062
ltibia 21.5526
lfoot -17.1806 -2.91726
ltoes 10.5098
3117
root -1.89562 23.4372 0.280222 679.85 -85.764 -684.015
lowerback 7.89114 0.341843 -2.40515
upperback 3.83467 0.198386 1.72231
thorax -0.473829 0.00930087 3.11416
lowerneck -12.7923 2.84246 -7.71192
upperneck 40.6517 5.20693 -0.855705
head 16.7114 0.209699 1.69938
rclavicle -1.14301e-014 -5.56597e-015
rhumerus -35.4535 -8.16513 -77.3489
rradius 28.296
rwrist -11.4356
rhand -19.3996 11.4247
rfingers 7.12502
rthumb 6.91941 -18.4422
lclavicle -1.14301e-014 -5.56597e-015
lhumerus -37.8027 9.69475 82.5756
lradius 26.3543
lwrist -1.85685
lhand -16.1165 20.1846
lfingers 7.12502
lthumb 10.0878 49.9228
rfemur -40.3169 -15.1483 21.1711
rtibia 69.6192
rfoot -9.68953 -6.81
rtoes 13.09
lfemur 6.519 -5.37811 -25.181
ltibia 22.3373
lfoot -17.8246 -3.5306
ltoes 11.3807
3118
root -1.96793 23.4127 0.261851 679.185 -85.3713 -683.517
lowerback 7.9325 0.368861 -2.81936
upperback 3.98796 0.199178 1.62334
thorax -0.338129 -0.000948427 3.2456
lowerneck -12.6906 2.79815 -7.61929
upperneck 40.3452 5.10616 -0.829075
head 16.5229 0.215999 1.67692
rclavicle 8.15017e-015 2.06736e-014
rhumerus -35.5296 -8.21423 -77.4267
rradius 28.2307
rwrist -11.5858
rhand -18.9317 11.5911
rfingers 7.12502
rthumb 7.37105 -18.2605
lclavicle 8.15017e-015 2.06736e-014
lhumerus -37.7704 9.12294 82.6363
lradius 26.4496
lwrist -1.57833
lhand -16.1434 20.0871
lfingers 7.12502
lthumb 10.0618 49.8265
rfemur -40.5382 -15.3666 21.0392
rtibia 68.1248
rfoot -8.94349 -7.24909
rtoes 13.0882
lfemur 6.5214 -5.44242 -25.3955
ltibia 23.2123
lfoot -18.3846 -4.24312
ltoes 12.3794
3119
root -2.04587 23.3877 0.258932 679.505 -85.122 -684.034
lowerback 7.96636 0.348778 -2.81999
upperback 4.14857 0.165186 1.49036
thorax -0.187983 -0.0239657 3.11076
lowerneck -12.6428 2.75909 -7.50306
upperneck 40.062 5.04626 -0.889469
head 16.3669 0.226198 1.61964
rclavicle 1.74931e-014 7.95139e-016
rhumerus -35.621 -8.05733 -77.6643
rradius 28.2585
rwrist -11.8988
rhand -19.0347 11.4743
rfingers 7.12502
rthumb 7.27161 -18.3807
lclavicle 1.74931e-014 7.95139e-016
lhumerus -37.7851 8.72523 82.5798
lradius 26.7413
lwrist -1.12642
lhand -16.2544 20.0711
lfingers 7.12502
lthumb 9.95468 49.8157
rfemur -40.5784 -15.5673 20.9759
rtibia 66.5185
rfoot -7.88542 -7.56094
rtoes 12.0818
lfemur 6.53101 -5.84859 -25.6513
ltibia 24.2198
lfoot -18.8115 -4.0578
ltoes 13.046
3120
root -2.11186 23.3552 0.251925 684.182 -84.9094 -688.893
lowerback 8.23784 0.350563 -2.5401
upperback 4.20042 0.177004 1.48563
thorax -0.284956 -0.0148217 2.94716
lowerneck -12.6465 2.59279 -7.2996
upperneck 40.0566 4.7675 -0.963594
head 16.3856 0.134578 1.50688
rclavicle -7.55382e-015 -2.38542e-015
rhumerus -35.8821 -8.36354 -77.5619
rradius 28.3065
rwrist -11.8023
rhand -19.3032 11.3464
rfingers 7.12502
rthumb 7.0125 -18.5175
lclavicle -7.55382e-015 -2.38542e-015
lhumerus -37.8433 8.58087 82.4549
lradius 27.0203
lwrist -1.1122
lhand -16.1833 19.6434
lfingers 7.12502
lthumb 10.0233 49.3847
rfemur -40.5401 -15.9931 21.3479
rtibia 64.7057
rfoot -6.44252 -7.78084
rtoes 10.4554
lfemur 6.49252 -6.20972 -25.4414
ltibia 25.1852
lfoot -19.1892 -3.97853
ltoes 12.358
3121
root -2.18584 23.3246 0.236151 691.346 -84.9528 -696.139
lowerback 8.25573 0.372808 -2.11539
upperback 4.23226 0.235885 1.68499
thorax -0.265927 0.0168753 2.90905
lowerneck -12.6319 2.45224 -7.43439
upperneck 40.1388 4.49129 -0.70293
head 16.4208 0.03354 1.60068
rclavicle -1.00386e-014 -5.56597e-015
rhumerus -36.0861 -8.81051 -77.2768
rradius 28.1707
rwrist -11.3007
rhand -19.5388 11.6555
rfingers 7.12502
rthumb 6.78506 -18.2158
lclavicle -1.00386e-014 -5.56597e-015
lhumerus -37.9429 8.3623 82.4764
lradius 27.2162
lwrist -1.18154
lhand -15.9659 19.5041
lfingers 7.12502
lthumb 10.233 49.2352
rfemur -40.5194 -16.2787 22.1764
rtibia 62.8149
rfoot -5.06627 -8.07185
rtoes 10.2093
lfemur 6.31877 -6.30468 -24.7398
ltibia 26.2229
lfoot -19.5447 -3.7196
ltoes 10.2164
3122
root -2.26677 23.2892 0.213808 695.577 -84.9652 -700.463
lowerback 8.15333 0.375026 -2.03556
upperback 4.31258 0.243654 1.872
thorax -0.127154 0.0154567 3.05718
lowerneck -12.4977 2.42002 -7.72445
upperneck 39.9617 4.432 -0.47746
head 16.2778 0.0129705 1.73847
rclavicle -9.34288e-015 1.59028e-015
rhumerus -36.2015 -8.85022 -77.1777
rradius 28.098
rwrist -10.9324
rhand -19.3429 11.9256
rfingers 7.12502
rthumb 6.97415 -17.9395
lclavicle -9.34288e-015 1.59028e-015
lhumerus -37.9907 8.30832 82.485
lradius 27.3293
lwrist -1.21342
lhand -15.8656 19.76
lfingers 7.12502
lthumb 10.3298 49.4863
rfemur -40.4193 -16.1675 22.6325
rtibia 60.9365
rfoot -3.74983 -8.34116
rtoes 12.0916
lfemur 6.15823 -6.33821 -24.2529
ltibia 27.3587
lfoot -19.8821 -3.56609
ltoes 8.64887
3123
root -2.342 23.2451 0.197725 692.097 -84.5738 -697.198
lowerback 8.30559 0.439822 -2.53332
upperback 4.43589 0.286741 1.71831
thorax -0.0866811 0.0269626 3.17566
lowerneck -12.5713 2.3228 -7.73305
upperneck 39.9195 4.30669 -0.475019
head 16.28 -0.0342561 1.72295
rclavicle -1.49089e-015 -4.77083e-015
rhumerus -36.3763 -8.79174 -77.2932
rradius 28.2576
rwrist -11.1039
rhand -18.8191 11.864
rfingers 7.12502
rthumb 7.47974 -17.9837
lclavicle -1.49089e-015 -4.77083e-015
lhumerus -37.9053 8.18922 82.3567
lradius 27.4497
lwrist -1.12526
lhand -15.7535 19.7676
lfingers 7.12502
lthumb 10.4379 49.4885
rfemur -40.2114 -16.1609 22.072
rtibia 59.1345
rfoot -2.06423 -8.34757
rtoes 13.9777
lfemur 6.05465 -6.47146 -24.6852
ltibia 28.6381
lfoot -20.3478 -4.04851
ltoes 8.71139
